<svg xmlns="http://www.w3.org/2000/svg" xmlns:xlink="http://www.w3.org/1999/xlink" id="svg" width="400" height="400" viewBox="0, 0, 400,400"><g id="svgg"><path id="path0" d="M209.010 152.382 C 208.575 153.031,207.810 153.781,207.310 154.048 C 206.809 154.316,206.400 154.685,206.400 154.868 C 206.400 155.050,206.202 155.200,205.960 155.200 C 205.719 155.200,205.044 155.709,204.460 156.331 C 203.877 156.953,202.590 157.988,201.600 158.631 C 200.610 159.274,199.387 160.205,198.882 160.700 C 198.377 161.195,197.800 161.600,197.600 161.600 C 197.400 161.600,196.786 162.050,196.236 162.600 C 195.686 163.150,195.048 163.600,194.818 163.600 C 194.588 163.600,194.400 163.780,194.400 164.000 C 194.400 164.220,194.222 164.400,194.005 164.400 C 193.653 164.400,192.894 164.936,191.455 166.200 C 191.205 166.420,190.505 166.855,189.900 167.168 C 189.295 167.480,188.800 167.885,188.800 168.068 C 188.800 168.250,188.575 168.402,188.300 168.405 C 188.025 168.408,187.350 168.770,186.800 169.210 C 185.271 170.432,180.822 173.200,180.387 173.200 C 180.174 173.200,180.000 173.380,180.000 173.600 C 180.000 173.820,179.629 174.000,179.176 174.000 C 178.723 174.000,178.451 174.159,178.571 174.354 C 178.691 174.548,178.265 174.924,177.624 175.190 C 176.983 175.456,176.151 176.012,175.775 176.427 C 175.400 176.842,174.938 177.085,174.749 176.968 C 174.559 176.851,173.818 177.305,173.102 177.976 C 172.386 178.647,171.575 179.197,171.300 179.198 C 171.025 179.199,170.800 179.368,170.800 179.573 C 170.800 179.778,170.485 180.047,170.100 180.170 C 169.715 180.293,168.620 181.108,167.668 181.980 C 166.715 182.853,165.587 183.677,165.162 183.812 C 164.736 183.947,164.492 184.225,164.618 184.429 C 164.744 184.633,164.654 184.800,164.418 184.800 C 164.182 184.800,162.461 186.317,160.594 188.171 C 158.727 190.026,157.197 191.421,157.194 191.271 C 157.191 191.122,156.951 191.450,156.661 192.000 C 156.372 192.550,155.924 192.955,155.667 192.900 C 155.410 192.845,155.200 192.947,155.200 193.126 C 155.200 193.306,154.120 194.584,152.800 195.967 C 151.480 197.350,150.400 198.654,150.400 198.864 C 150.400 199.075,150.192 199.119,149.938 198.962 C 149.676 198.800,149.584 198.851,149.726 199.080 C 149.863 199.302,149.171 200.323,148.187 201.349 C 147.204 202.375,146.400 203.357,146.400 203.532 C 146.400 203.706,146.041 204.234,145.603 204.705 C 144.770 205.599,143.672 207.311,142.538 209.483 C 142.170 210.188,141.718 210.673,141.534 210.559 C 141.350 210.446,141.200 210.723,141.200 211.176 C 141.200 211.629,141.055 212.000,140.879 212.000 C 140.702 212.000,140.117 212.897,139.579 213.994 C 139.040 215.090,138.465 215.990,138.300 215.994 C 138.135 215.997,138.000 216.371,138.000 216.824 C 138.000 217.277,137.820 217.536,137.600 217.400 C 137.380 217.264,137.200 217.534,137.200 218.000 C 137.200 218.466,137.020 218.736,136.800 218.600 C 136.580 218.464,136.400 218.608,136.400 218.920 C 136.400 219.595,133.932 224.541,133.500 224.733 C 133.335 224.807,133.200 225.212,133.200 225.633 C 133.200 226.055,133.020 226.400,132.800 226.400 C 132.580 226.400,132.400 226.850,132.400 227.400 C 132.400 227.950,132.220 228.400,132.000 228.400 C 131.780 228.400,131.600 228.749,131.600 229.176 C 131.600 229.603,131.420 230.064,131.200 230.200 C 130.980 230.336,130.800 230.807,130.800 231.247 C 130.800 231.687,130.657 231.959,130.483 231.851 C 130.309 231.744,130.138 232.025,130.104 232.476 C 130.070 232.928,129.673 234.083,129.221 235.044 C 128.770 236.005,128.400 237.063,128.400 237.396 C 128.400 237.728,128.220 238.000,128.000 238.000 C 127.780 238.000,127.600 238.540,127.600 239.200 C 127.600 239.860,127.420 240.400,127.200 240.400 C 126.980 240.400,126.800 240.940,126.800 241.600 C 126.800 242.275,126.587 242.800,126.314 242.800 C 126.001 242.800,126.059 243.031,126.479 243.450 C 127.065 244.037,127.071 244.263,126.538 245.750 C 125.789 247.840,123.059 259.302,122.429 263.000 C 122.167 264.540,121.791 266.610,121.594 267.600 C 120.008 275.578,118.990 297.720,120.128 299.500 C 120.465 300.028,334.350 300.270,336.313 299.745 L 337.225 299.500 337.184 290.756 C 337.161 285.850,336.980 281.911,336.772 281.783 C 336.567 281.656,336.400 279.774,336.400 277.600 C 336.400 275.396,336.223 273.538,336.000 273.400 C 335.780 273.264,335.600 271.824,335.600 270.200 C 335.600 268.576,335.420 267.136,335.200 267.000 C 334.980 266.864,334.800 265.773,334.800 264.576 C 334.800 263.379,334.620 262.400,334.400 262.400 C 334.180 262.400,334.000 261.601,334.000 260.624 C 334.000 259.647,333.820 258.736,333.600 258.600 C 333.380 258.464,333.200 257.553,333.200 256.576 C 333.200 255.599,333.020 254.800,332.800 254.800 C 332.580 254.800,332.400 254.091,332.400 253.224 C 332.400 252.357,332.220 251.536,332.000 251.400 C 331.780 251.264,331.600 250.634,331.600 250.000 C 331.600 249.366,331.420 248.736,331.200 248.600 C 330.980 248.464,330.800 247.834,330.800 247.200 C 330.800 246.566,330.620 245.936,330.400 245.800 C 330.180 245.664,330.000 245.023,330.000 244.376 C 330.000 243.729,329.820 243.200,329.600 243.200 C 329.380 243.200,329.200 242.750,329.200 242.200 C 329.200 241.650,329.020 241.200,328.800 241.200 C 328.580 241.200,328.400 240.660,328.400 240.000 C 328.400 239.340,328.220 238.800,328.000 238.800 C 327.780 238.800,327.600 238.260,327.600 237.600 C 327.600 236.940,327.420 236.400,327.200 236.400 C 326.980 236.400,326.800 235.950,326.800 235.400 C 326.800 234.850,326.620 234.400,326.400 234.400 C 326.180 234.400,326.000 233.950,326.000 233.400 C 326.000 232.850,325.820 232.400,325.600 232.400 C 325.380 232.400,325.200 231.965,325.200 231.433 C 325.200 230.901,324.774 229.596,324.254 228.533 C 323.734 227.470,323.060 226.015,322.756 225.300 C 322.453 224.585,322.069 224.000,321.902 224.000 C 321.736 224.000,321.600 223.640,321.600 223.200 C 321.600 222.760,321.420 222.400,321.200 222.400 C 320.980 222.400,320.800 222.040,320.800 221.600 C 320.800 221.160,320.620 220.800,320.400 220.800 C 320.180 220.800,320.000 220.455,320.000 220.033 C 320.000 219.612,319.865 219.207,319.700 219.133 C 319.535 219.060,318.967 218.145,318.437 217.100 C 317.908 216.055,317.323 215.200,317.137 215.200 C 316.952 215.200,316.800 214.840,316.800 214.400 C 316.800 213.960,316.620 213.600,316.400 213.600 C 316.180 213.600,316.000 213.229,316.000 212.776 C 316.000 212.323,315.820 212.064,315.600 212.200 C 315.380 212.336,315.200 212.167,315.200 211.824 C 315.200 211.481,315.020 211.200,314.800 211.200 C 314.580 211.200,314.400 210.829,314.400 210.376 C 314.400 209.923,314.220 209.664,314.000 209.800 C 313.780 209.936,313.600 209.767,313.600 209.424 C 313.600 209.081,313.420 208.800,313.200 208.800 C 312.980 208.800,312.800 208.570,312.800 208.288 C 312.800 208.007,312.440 207.517,312.000 207.200 C 311.560 206.883,311.200 206.375,311.200 206.072 C 311.200 205.769,310.660 205.017,310.000 204.400 C 309.340 203.783,308.795 203.036,308.789 202.740 C 308.783 202.443,308.108 201.437,307.289 200.504 C 306.470 199.571,305.170 198.057,304.400 197.139 C 303.630 196.221,302.224 194.734,301.275 193.835 C 300.326 192.936,297.673 190.355,295.379 188.100 C 293.086 185.845,291.092 184.000,290.949 184.000 C 290.722 184.000,289.562 183.036,286.114 179.984 C 285.627 179.553,285.041 179.200,284.811 179.200 C 284.581 179.200,283.828 178.660,283.137 178.000 C 282.446 177.340,281.638 176.800,281.341 176.800 C 281.043 176.800,280.800 176.659,280.800 176.486 C 280.800 176.314,279.723 175.639,278.407 174.986 C 277.090 174.334,276.010 173.665,276.007 173.500 C 276.003 173.335,275.812 173.200,275.583 173.200 C 275.354 173.200,274.780 172.840,274.308 172.400 C 273.836 171.960,273.213 171.600,272.925 171.600 C 272.636 171.600,272.400 171.420,272.400 171.200 C 272.400 170.980,272.130 170.800,271.800 170.800 C 271.470 170.800,271.200 170.620,271.200 170.400 C 271.200 170.180,270.930 170.000,270.600 170.000 C 270.270 170.000,270.000 169.820,270.000 169.600 C 270.000 169.380,269.764 169.200,269.475 169.200 C 269.187 169.200,268.602 168.885,268.175 168.500 C 267.749 168.115,266.905 167.545,266.300 167.232 C 265.695 166.920,265.200 166.515,265.200 166.332 C 265.200 166.150,264.957 166.000,264.659 166.000 C 264.362 166.000,263.554 165.460,262.863 164.800 C 262.172 164.140,261.375 163.600,261.092 163.600 C 260.809 163.600,260.317 163.240,260.000 162.800 C 259.683 162.360,259.193 162.000,258.912 162.000 C 258.630 162.000,258.392 161.865,258.381 161.700 C 258.371 161.535,257.459 160.770,256.355 160.000 C 255.251 159.230,253.694 158.015,252.896 157.300 C 252.097 156.585,251.288 156.000,251.098 156.000 C 250.908 156.000,250.864 155.820,251.000 155.600 C 251.136 155.380,250.955 155.200,250.598 155.200 C 250.240 155.200,249.043 154.271,247.937 153.136 C 246.372 151.529,245.849 151.196,245.578 151.636 C 245.092 152.421,211.368 152.483,210.717 151.700 C 210.116 150.976,209.891 151.066,209.010 152.382 M87.688 237.291 L 87.600 243.583 79.900 243.701 L 72.200 243.818 79.913 243.909 C 85.919 243.980,87.669 243.886,87.824 243.482 C 87.933 243.198,87.967 240.273,87.900 236.982 L 87.777 231.000 87.688 237.291 M214.165 353.400 C 214.166 357.360,214.226 358.926,214.298 356.880 C 214.371 354.834,214.371 351.594,214.298 349.680 C 214.224 347.766,214.165 349.440,214.165 353.400 M237.765 353.600 C 237.765 357.450,237.825 359.025,237.898 357.100 C 237.971 355.175,237.971 352.025,237.898 350.100 C 237.825 348.175,237.765 349.750,237.765 353.600 " stroke="none" fill="#3bb7a5" fill-rule="evenodd"></path><path id="path1" d="M73.462 104.100 C 73.564 104.265,73.007 104.400,72.224 104.400 C 71.441 104.400,70.800 104.580,70.800 104.800 C 70.800 105.020,70.260 105.200,69.600 105.200 C 68.940 105.200,68.399 105.335,68.397 105.500 C 68.393 105.865,66.451 106.800,65.697 106.800 C 65.398 106.800,65.264 106.980,65.400 107.200 C 65.536 107.420,65.336 107.600,64.956 107.600 C 63.816 107.600,59.435 111.209,58.068 113.274 C 57.367 114.333,56.615 115.200,56.397 115.200 C 56.179 115.200,56.000 115.494,56.000 115.853 C 56.000 116.212,55.612 116.842,55.139 117.253 C 54.630 117.695,54.491 118.000,54.800 118.000 C 55.109 118.000,54.970 118.305,54.461 118.747 C 53.988 119.158,53.600 119.957,53.600 120.523 C 53.600 121.090,53.420 121.664,53.200 121.800 C 52.980 121.936,52.800 122.476,52.800 123.000 C 52.800 123.524,52.620 124.064,52.400 124.200 C 52.180 124.336,52.000 125.067,52.000 125.824 C 52.000 126.581,51.820 127.200,51.600 127.200 C 50.721 127.200,51.094 151.515,51.980 151.989 C 52.502 152.269,63.496 152.407,85.346 152.410 C 111.489 152.412,118.134 152.517,118.947 152.939 C 120.623 153.808,122.800 155.846,122.800 156.545 C 122.800 156.905,122.955 157.200,123.144 157.200 C 123.333 157.200,123.499 160.305,123.512 164.100 C 123.542 172.577,123.509 172.097,124.043 171.919 C 124.704 171.699,124.773 156.800,124.113 156.800 C 123.844 156.800,123.728 156.532,123.854 156.203 C 123.985 155.863,123.808 155.501,123.444 155.361 C 123.092 155.227,122.890 154.978,122.994 154.809 C 123.256 154.386,120.888 152.463,119.251 151.771 C 118.351 151.390,116.402 151.200,113.392 151.200 L 108.882 151.200 108.709 138.300 C 108.562 127.323,108.436 125.176,107.863 123.900 C 107.492 123.075,107.286 122.400,107.404 122.400 C 107.522 122.400,107.324 121.950,106.963 121.400 C 106.603 120.850,106.464 120.397,106.654 120.394 C 106.844 120.391,106.820 120.256,106.600 120.094 C 106.012 119.662,105.200 118.103,105.200 117.405 C 105.200 117.072,105.020 116.800,104.800 116.800 C 104.580 116.800,104.400 116.548,104.400 116.241 C 104.400 115.418,97.316 108.400,96.486 108.400 C 96.096 108.400,95.517 108.040,95.200 107.600 C 94.883 107.160,94.303 106.800,93.912 106.800 C 93.520 106.800,93.200 106.620,93.200 106.400 C 93.200 106.180,92.840 106.000,92.400 106.000 C 91.960 106.000,91.600 105.820,91.600 105.600 C 91.600 105.380,91.150 105.200,90.600 105.200 C 90.050 105.200,89.600 105.020,89.600 104.800 C 89.600 104.580,89.000 104.400,88.267 104.400 C 87.533 104.400,86.813 104.280,86.667 104.133 C 86.296 103.762,73.233 103.730,73.462 104.100 M40.000 177.400 C 42.120 179.547,42.400 179.783,42.400 179.427 C 42.400 179.111,38.458 175.200,38.140 175.200 C 37.968 175.200,38.805 176.190,40.000 177.400 M47.105 213.912 L 47.210 243.624 48.194 243.998 C 48.736 244.204,54.224 244.497,60.389 244.649 L 71.600 244.926 71.600 237.712 C 71.600 227.029,73.519 223.867,80.000 223.867 C 86.383 223.867,88.106 226.604,88.397 237.200 L 88.600 244.600 107.500 244.704 C 124.134 244.795,126.400 244.735,126.400 244.204 C 126.400 243.689,125.397 243.600,119.600 243.600 L 112.800 243.600 112.800 213.742 L 112.800 183.884 79.900 184.042 L 47.000 184.200 47.105 213.912 M48.500 284.300 L 39.600 284.415 39.600 322.408 L 39.600 360.400 61.900 360.400 L 84.200 360.400 84.200 345.500 C 84.200 325.840,84.677 324.662,92.861 324.101 L 96.000 323.886 96.000 315.330 C 96.000 303.089,97.303 300.719,104.400 300.046 L 107.000 299.800 106.856 292.200 C 106.759 287.098,106.562 284.503,106.256 284.306 C 105.835 284.035,69.189 284.031,48.500 284.300 M345.078 299.856 C 344.634 300.300,345.211 300.800,346.168 300.800 C 347.113 300.800,350.195 303.471,351.071 305.048 C 351.387 305.618,351.556 308.717,351.584 314.487 L 351.626 323.078 347.713 323.337 C 341.861 323.724,272.285 323.642,271.661 323.246 C 271.340 323.043,273.356 322.807,276.661 322.662 C 289.603 322.094,307.138 319.420,312.600 317.181 C 313.040 317.000,314.054 316.633,314.853 316.363 C 321.521 314.116,323.641 305.896,318.733 301.319 L 317.788 300.437 213.794 300.385 C 147.164 300.351,109.437 300.472,108.791 300.722 C 104.823 302.253,104.000 304.748,104.000 315.249 L 104.000 324.000 101.460 324.000 C 96.988 324.000,94.248 325.523,92.843 328.789 C 92.036 330.664,92.000 331.383,92.000 345.574 L 92.000 360.400 152.753 360.400 L 213.505 360.400 213.675 352.700 C 213.824 345.989,213.953 344.762,214.678 343.151 C 218.291 335.122,228.884 333.060,234.637 339.266 C 237.993 342.887,238.400 344.411,238.400 353.346 L 238.400 360.400 301.400 360.400 L 364.400 360.400 364.400 344.473 L 364.400 328.545 363.114 326.872 C 362.407 325.952,361.507 325.097,361.114 324.973 C 360.721 324.848,360.400 324.578,360.400 324.373 C 360.400 324.168,359.950 324.000,359.400 324.000 C 358.850 324.000,358.400 323.820,358.400 323.600 C 358.400 323.371,357.200 323.200,355.600 323.200 L 352.800 323.200 352.800 314.200 C 352.800 308.467,352.655 305.200,352.400 305.200 C 352.180 305.200,352.000 304.928,352.000 304.595 C 352.000 303.350,349.958 300.733,348.782 300.470 C 348.462 300.399,348.140 300.174,348.067 299.970 C 347.917 299.554,345.473 299.460,345.078 299.856 M358.168 324.808 C 358.384 325.024,358.830 325.200,359.161 325.200 C 359.889 325.200,362.400 327.561,362.400 328.245 C 362.400 328.514,362.625 328.808,362.900 328.900 C 363.288 329.029,363.400 332.455,363.400 344.233 L 363.400 359.400 308.200 359.510 C 256.154 359.613,247.426 359.491,253.400 358.742 C 254.720 358.576,256.880 358.244,258.200 358.004 C 260.928 357.509,264.215 356.986,268.000 356.446 C 269.430 356.242,271.950 355.864,273.600 355.606 C 277.784 354.951,280.647 354.552,286.200 353.849 C 288.840 353.515,292.440 353.045,294.200 352.805 C 295.960 352.565,298.840 352.176,300.600 351.942 C 304.292 351.451,306.745 351.065,310.400 350.403 C 315.187 349.535,316.589 349.253,318.400 348.792 C 319.390 348.541,320.876 348.240,321.703 348.125 C 322.529 348.010,323.305 347.755,323.426 347.558 C 323.548 347.361,324.029 347.200,324.495 347.200 C 325.396 347.200,327.739 346.535,328.895 345.951 C 329.277 345.758,329.864 345.600,330.200 345.600 C 330.536 345.600,331.123 345.441,331.505 345.247 C 332.221 344.883,333.846 344.189,335.600 343.500 C 336.150 343.284,336.960 342.914,337.400 342.678 C 337.840 342.442,338.908 341.902,339.773 341.479 C 340.639 341.057,341.597 340.461,341.902 340.155 C 342.207 339.850,342.579 339.600,342.729 339.600 C 345.444 339.600,350.477 329.484,348.400 328.200 C 348.180 328.064,348.000 327.524,348.000 327.000 C 348.000 326.476,347.820 325.936,347.600 325.800 C 347.380 325.664,347.200 325.208,347.200 324.787 C 347.200 323.935,357.315 323.955,358.168 324.808 " stroke="none" fill="#f1f2fa" fill-rule="evenodd"></path><path id="path2" d="M69.800 61.748 C 68.590 62.930,67.600 64.190,67.600 64.548 C 67.600 64.907,67.420 65.200,67.200 65.200 C 66.980 65.200,66.800 65.549,66.800 65.976 C 66.800 66.403,66.620 66.864,66.400 67.000 C 66.180 67.136,66.000 68.036,66.000 69.000 C 66.000 69.964,65.820 70.864,65.600 71.000 C 65.380 71.136,65.200 71.856,65.200 72.600 C 65.200 73.344,65.380 74.064,65.600 74.200 C 65.820 74.336,66.000 75.337,66.000 76.424 C 66.000 77.511,66.180 78.400,66.400 78.400 C 66.620 78.400,66.800 78.760,66.800 79.200 C 66.800 79.640,66.980 80.000,67.200 80.000 C 67.420 80.000,67.600 80.320,67.600 80.712 C 67.600 81.103,67.960 81.683,68.400 82.000 C 68.840 82.317,69.200 82.791,69.200 83.053 C 69.200 83.694,72.783 86.625,74.300 87.225 C 75.087 87.536,75.713 98.970,75.166 103.055 C 75.079 103.706,76.490 103.988,79.867 103.994 C 85.238 104.003,84.800 104.685,84.800 96.301 C 84.800 88.503,84.926 88.044,87.076 88.013 C 87.558 88.006,88.064 87.820,88.200 87.600 C 88.336 87.380,88.797 87.200,89.224 87.200 C 89.651 87.200,90.000 87.062,90.000 86.894 C 90.000 86.726,90.720 86.144,91.600 85.600 C 92.480 85.056,93.200 84.384,93.200 84.106 C 93.200 83.828,93.380 83.600,93.600 83.600 C 94.495 83.600,94.062 78.026,93.092 77.055 C 92.139 76.103,87.200 75.489,87.200 76.323 C 87.200 76.532,86.660 76.927,86.000 77.200 C 85.340 77.473,84.800 77.855,84.800 78.049 C 84.800 78.242,84.451 78.400,84.024 78.400 C 83.597 78.400,83.136 78.580,83.000 78.800 C 82.864 79.020,82.324 79.200,81.800 79.200 C 81.276 79.200,80.736 79.020,80.600 78.800 C 80.464 78.580,79.997 78.400,79.563 78.400 C 78.746 78.400,76.000 75.944,76.000 75.213 C 76.000 74.986,75.820 74.800,75.600 74.800 C 75.380 74.800,75.200 73.900,75.200 72.800 C 75.200 71.700,75.380 70.800,75.600 70.800 C 75.820 70.800,76.000 70.480,76.000 70.088 C 76.000 69.697,76.360 69.117,76.800 68.800 C 77.240 68.483,77.600 67.903,77.600 67.512 C 77.600 67.120,77.780 66.800,78.000 66.800 C 78.843 66.800,78.447 62.655,77.500 61.563 C 75.097 58.793,72.770 58.849,69.800 61.748 M226.800 72.400 C 226.800 72.840,226.665 73.200,226.500 73.200 C 226.335 73.200,225.867 74.325,225.460 75.700 C 225.053 77.075,224.558 78.513,224.360 78.895 C 224.162 79.277,224.000 79.862,224.000 80.195 C 224.000 80.528,223.820 80.800,223.600 80.800 C 223.380 80.800,223.200 81.340,223.200 82.000 C 223.200 82.660,223.020 83.200,222.800 83.200 C 222.580 83.200,222.400 83.661,222.400 84.224 C 222.400 84.804,222.227 85.140,222.000 85.000 C 221.767 84.856,221.600 85.263,221.600 85.976 C 221.600 86.649,221.420 87.200,221.200 87.200 C 220.980 87.200,220.800 87.740,220.800 88.400 C 220.800 89.060,220.620 89.600,220.400 89.600 C 220.180 89.600,220.000 90.140,220.000 90.800 C 220.000 91.460,219.820 92.000,219.600 92.000 C 219.380 92.000,219.200 92.630,219.200 93.400 C 219.200 94.170,219.020 94.800,218.800 94.800 C 218.580 94.800,218.400 95.520,218.400 96.400 C 218.400 97.280,218.220 98.000,218.000 98.000 C 217.759 98.000,217.600 99.667,217.600 102.200 C 217.600 104.733,217.759 106.400,218.000 106.400 C 218.220 106.400,218.400 107.120,218.400 108.000 C 218.400 108.880,218.580 109.600,218.800 109.600 C 219.020 109.600,219.200 110.309,219.200 111.176 C 219.200 112.043,219.380 112.864,219.600 113.000 C 219.820 113.136,220.000 114.047,220.000 115.024 C 220.000 116.001,220.180 116.800,220.400 116.800 C 220.631 116.800,220.800 118.059,220.800 119.776 C 220.800 121.413,220.620 122.864,220.400 123.000 C 220.180 123.136,220.000 123.867,220.000 124.624 C 220.000 125.381,219.820 126.000,219.600 126.000 C 219.380 126.000,219.200 126.540,219.200 127.200 C 219.200 127.860,219.020 128.400,218.800 128.400 C 218.580 128.400,218.400 128.929,218.400 129.576 C 218.400 130.223,218.220 130.864,218.000 131.000 C 217.780 131.136,217.600 131.687,217.600 132.224 C 217.600 132.761,217.420 133.200,217.200 133.200 C 216.980 133.200,216.800 133.740,216.800 134.400 C 216.800 135.060,216.653 135.600,216.472 135.600 C 216.292 135.600,215.900 136.500,215.600 137.600 C 215.300 138.700,214.908 139.600,214.728 139.600 C 214.547 139.600,214.400 140.140,214.400 140.800 C 214.400 141.460,214.264 142.000,214.098 142.000 C 213.931 142.000,213.560 142.585,213.271 143.300 C 212.983 144.015,212.579 144.913,212.374 145.295 C 212.168 145.677,212.000 146.262,212.000 146.595 C 212.000 146.928,211.859 147.200,211.687 147.200 C 211.198 147.200,210.331 150.554,210.623 151.316 C 210.890 152.012,242.235 152.408,244.700 151.748 C 245.610 151.504,246.053 149.600,245.200 149.600 C 244.980 149.600,244.800 149.240,244.800 148.800 C 244.800 148.360,244.620 148.000,244.400 148.000 C 244.180 148.000,244.000 147.561,244.000 147.024 C 244.000 146.487,243.820 145.936,243.600 145.800 C 243.380 145.664,243.200 145.203,243.200 144.776 C 243.200 144.349,243.020 144.000,242.800 144.000 C 242.580 144.000,242.400 143.550,242.400 143.000 C 242.400 142.450,242.220 142.000,242.000 142.000 C 241.780 142.000,241.600 141.784,241.600 141.520 C 241.600 140.588,240.219 136.400,239.911 136.400 C 239.740 136.400,239.600 135.961,239.600 135.424 C 239.600 134.887,239.420 134.336,239.200 134.200 C 238.980 134.064,238.800 133.524,238.800 133.000 C 238.800 132.476,238.620 131.936,238.400 131.800 C 238.180 131.664,238.000 131.124,238.000 130.600 C 238.000 130.076,237.820 129.536,237.600 129.400 C 237.380 129.264,237.200 128.724,237.200 128.200 C 237.200 127.676,237.020 127.136,236.800 127.000 C 236.580 126.864,236.400 126.133,236.400 125.376 C 236.400 124.619,236.220 124.000,236.000 124.000 C 235.758 124.000,235.600 122.267,235.600 119.600 C 235.600 116.933,235.758 115.200,236.000 115.200 C 236.220 115.200,236.400 114.480,236.400 113.600 C 236.400 112.720,236.562 112.000,236.760 112.000 C 236.958 112.000,237.219 111.235,237.341 110.300 C 237.822 106.618,238.066 105.366,238.465 104.552 C 239.032 103.392,238.292 96.227,237.558 95.774 C 237.361 95.652,237.200 94.933,237.200 94.176 C 237.200 93.419,237.020 92.800,236.800 92.800 C 236.580 92.800,236.400 92.260,236.400 91.600 C 236.400 90.940,236.220 90.400,236.000 90.400 C 235.780 90.400,235.600 89.860,235.600 89.200 C 235.600 88.540,235.420 88.000,235.200 88.000 C 234.980 88.000,234.800 87.460,234.800 86.800 C 234.800 86.140,234.620 85.600,234.400 85.600 C 234.180 85.600,234.000 85.251,234.000 84.824 C 234.000 84.397,233.820 83.936,233.600 83.800 C 233.380 83.664,233.200 83.113,233.200 82.576 C 233.200 82.039,233.020 81.600,232.800 81.600 C 232.580 81.600,232.400 81.060,232.400 80.400 C 232.400 79.740,232.220 79.200,232.000 79.200 C 231.780 79.200,231.600 78.840,231.600 78.400 C 231.600 77.960,231.420 77.600,231.200 77.600 C 230.980 77.600,230.800 77.150,230.800 76.600 C 230.800 76.050,230.620 75.600,230.400 75.600 C 230.180 75.600,230.000 75.240,230.000 74.800 C 230.000 74.360,229.820 74.000,229.600 74.000 C 229.380 74.000,229.200 73.460,229.200 72.800 C 229.200 71.733,229.067 71.600,228.000 71.600 C 227.067 71.600,226.800 71.778,226.800 72.400 " stroke="none" fill="#f3d262" fill-rule="evenodd"></path><path id="path3" d="M75.907 225.573 C 72.777 227.558,72.042 229.923,72.017 238.100 L 72.000 243.600 79.800 243.600 L 87.600 243.600 87.600 236.784 C 87.600 230.706,87.511 229.794,86.781 228.363 C 84.828 224.534,79.643 223.203,75.907 225.573 M223.800 336.579 C 216.356 338.481,214.410 341.861,214.404 352.900 L 214.400 360.400 226.000 360.400 L 237.600 360.400 237.600 352.758 C 237.600 344.283,237.211 342.733,234.337 339.745 C 232.713 338.056,227.277 335.659,225.923 336.034 C 225.855 336.053,224.900 336.298,223.800 336.579 " stroke="none" fill="#2e3e6d" fill-rule="evenodd"></path><path id="path4" d="M42.000 151.600 C 42.000 151.820,41.865 151.979,41.700 151.953 C 40.709 151.796,39.590 152.060,39.800 152.400 C 39.936 152.620,39.767 152.800,39.424 152.800 C 39.081 152.800,38.800 152.980,38.800 153.200 C 38.800 153.420,38.603 153.555,38.363 153.500 C 38.122 153.445,37.717 153.750,37.463 154.178 C 37.208 154.606,36.685 155.315,36.300 155.754 C 35.490 156.676,35.207 172.000,36.000 172.000 C 36.220 172.000,36.400 172.329,36.400 172.730 C 36.400 173.132,36.715 173.755,37.100 174.115 C 38.119 175.069,41.824 178.814,44.669 181.763 L 47.139 184.324 80.240 184.100 L 113.341 183.875 118.707 178.500 C 123.172 174.028,124.030 172.979,123.812 172.262 C 123.668 171.788,123.535 168.205,123.517 164.300 C 123.498 160.395,123.329 157.200,123.141 157.200 C 122.954 157.200,122.800 156.905,122.800 156.545 C 122.800 155.846,120.623 153.808,118.947 152.939 C 118.134 152.517,111.481 152.412,85.301 152.410 C 56.897 152.407,52.550 152.328,51.749 151.803 C 50.666 151.094,42.000 150.913,42.000 151.600 M238.400 152.000 L 232.200 152.232 238.200 152.288 C 241.500 152.319,244.560 152.189,245.000 152.000 C 245.440 151.811,245.530 151.681,245.200 151.712 C 244.870 151.743,241.810 151.873,238.400 152.000 M212.711 152.293 C 213.651 152.378,215.091 152.377,215.911 152.291 C 216.730 152.205,215.960 152.136,214.200 152.137 C 212.440 152.139,211.770 152.209,212.711 152.293 M124.557 164.400 C 124.557 167.370,124.620 168.585,124.697 167.100 C 124.774 165.615,124.774 163.185,124.697 161.700 C 124.620 160.215,124.557 161.430,124.557 164.400 M78.400 223.869 C 73.065 224.814,71.600 227.797,71.600 237.712 L 71.600 244.926 60.309 244.647 C 51.448 244.428,48.759 244.238,47.809 243.762 C 45.902 242.805,24.405 243.038,25.005 244.008 C 25.113 244.183,24.886 244.243,24.501 244.142 C 24.076 244.031,23.189 244.519,22.250 245.380 C 21.397 246.161,20.825 246.800,20.978 246.800 C 21.132 246.800,20.974 247.083,20.629 247.429 C 20.283 247.774,20.000 248.404,20.000 248.829 C 20.000 249.253,19.831 249.600,19.625 249.600 C 18.897 249.600,19.085 266.670,19.816 266.951 C 20.165 267.085,20.343 267.368,20.212 267.581 C 19.773 268.291,23.425 272.800,24.439 272.800 C 24.570 272.800,25.110 273.171,25.639 273.624 C 26.167 274.078,27.006 274.798,27.503 275.224 C 28.000 275.651,28.503 276.000,28.621 276.000 C 28.740 276.000,29.256 276.405,29.768 276.900 C 31.017 278.107,32.365 279.200,32.604 279.200 C 32.711 279.200,33.466 279.830,34.282 280.600 C 35.099 281.370,35.903 282.000,36.070 282.000 C 36.237 282.000,36.964 282.585,37.687 283.300 L 39.000 284.600 49.400 284.348 C 64.268 283.988,105.715 283.957,106.256 284.306 C 106.562 284.503,106.759 287.098,106.856 292.200 L 107.000 299.800 104.400 300.046 C 97.303 300.719,96.000 303.089,96.000 315.330 L 96.000 323.886 92.851 324.102 C 88.695 324.386,86.518 325.613,84.864 328.600 C 84.188 329.822,83.587 357.100,84.184 359.479 C 84.405 360.359,84.583 360.400,88.208 360.400 L 92.000 360.400 92.000 345.574 C 92.000 331.383,92.036 330.664,92.843 328.789 C 94.248 325.523,96.988 324.000,101.460 324.000 L 104.000 324.000 104.000 315.249 C 104.000 304.748,104.823 302.253,108.791 300.722 C 109.437 300.472,147.164 300.351,213.794 300.385 L 317.788 300.437 318.733 301.319 C 323.641 305.896,321.521 314.116,314.853 316.363 C 314.054 316.633,313.040 317.000,312.600 317.181 C 309.564 318.425,300.334 320.303,292.800 321.208 C 284.581 322.195,281.995 322.428,276.661 322.662 C 273.356 322.807,271.340 323.043,271.661 323.246 C 272.285 323.642,341.861 323.724,347.713 323.337 L 351.626 323.078 351.584 314.487 C 351.556 308.717,351.387 305.618,351.071 305.048 C 350.203 303.485,347.155 300.849,346.070 300.724 C 345.481 300.656,345.030 300.420,345.067 300.200 C 345.111 299.934,307.565 299.839,232.903 299.916 C 152.324 299.999,120.549 299.909,120.236 299.596 C 118.975 298.336,119.923 276.005,121.594 267.600 C 121.791 266.610,122.167 264.540,122.429 263.000 C 123.062 259.283,125.790 247.836,126.546 245.726 C 127.437 243.240,127.202 243.160,119.347 243.300 L 112.600 243.421 119.500 243.510 C 125.347 243.586,126.400 243.692,126.400 244.204 C 126.400 244.735,124.134 244.795,107.500 244.704 L 88.600 244.600 88.397 237.200 C 88.097 226.265,85.374 222.635,78.400 223.869 M83.845 225.115 C 87.132 226.883,87.800 228.924,87.800 237.200 L 87.800 243.800 80.000 243.800 L 72.200 243.800 72.089 237.636 C 71.939 229.285,73.470 225.454,77.290 224.622 C 79.853 224.064,82.224 224.242,83.845 225.115 M347.200 324.787 C 347.200 325.208,347.380 325.664,347.600 325.800 C 347.820 325.936,348.000 326.476,348.000 327.000 C 348.000 327.524,348.180 328.064,348.400 328.200 C 350.477 329.484,345.444 339.600,342.729 339.600 C 342.579 339.600,342.207 339.850,341.902 340.155 C 341.597 340.461,340.639 341.057,339.773 341.479 C 338.908 341.902,337.840 342.442,337.400 342.678 C 336.960 342.914,336.150 343.284,335.600 343.500 C 333.846 344.189,332.221 344.883,331.505 345.247 C 331.123 345.441,330.536 345.600,330.200 345.600 C 329.864 345.600,329.277 345.758,328.895 345.951 C 327.739 346.535,325.396 347.200,324.495 347.200 C 324.029 347.200,323.548 347.361,323.426 347.558 C 323.305 347.755,322.529 348.010,321.703 348.125 C 320.876 348.240,319.390 348.541,318.400 348.792 C 314.859 349.693,306.845 351.111,300.600 351.942 C 298.840 352.176,295.960 352.565,294.200 352.805 C 292.440 353.045,288.840 353.515,286.200 353.849 C 280.647 354.552,277.784 354.951,273.600 355.606 C 271.950 355.864,269.430 356.242,268.000 356.446 C 264.215 356.986,260.928 357.509,258.200 358.004 C 256.880 358.244,254.720 358.576,253.400 358.742 C 247.426 359.491,256.154 359.613,308.200 359.510 L 363.400 359.400 363.400 344.233 C 363.400 332.455,363.288 329.029,362.900 328.900 C 362.625 328.808,362.400 328.514,362.400 328.245 C 362.400 327.561,359.889 325.200,359.161 325.200 C 358.830 325.200,358.384 325.024,358.168 324.808 C 357.315 323.955,347.200 323.935,347.200 324.787 M220.946 336.811 C 217.229 338.614,213.958 342.783,214.050 345.600 C 214.074 346.336,214.193 346.178,214.499 345.000 C 216.467 337.434,225.481 333.791,232.103 337.885 C 236.814 340.797,237.686 343.001,238.005 352.800 L 238.258 360.600 238.329 353.446 C 238.419 344.408,238.034 342.932,234.637 339.266 C 231.184 335.540,225.621 334.543,220.946 336.811 M213.764 353.800 C 213.763 357.540,213.823 359.124,213.897 357.320 C 213.971 355.515,213.972 352.455,213.898 350.520 C 213.825 348.584,213.764 350.060,213.764 353.800 " stroke="none" fill="#b4c4d4" fill-rule="evenodd"></path></g></svg>