<svg xmlns="http://www.w3.org/2000/svg" xmlns:xlink="http://www.w3.org/1999/xlink" id="svg" width="400" height="400" viewBox="0, 0, 400,400"><g id="svgg"><path id="path0" d="M247.400 53.200 C 247.551 53.444,246.949 53.600,245.857 53.600 C 244.872 53.600,244.007 53.774,243.933 53.987 C 243.860 54.200,243.227 54.418,242.528 54.470 C 241.828 54.523,241.344 54.709,241.451 54.883 C 241.559 55.057,241.187 55.200,240.624 55.200 C 240.061 55.200,239.600 55.380,239.600 55.600 C 239.600 55.820,239.240 56.000,238.800 56.000 C 238.360 56.000,238.000 56.180,238.000 56.400 C 238.000 56.620,237.640 56.800,237.200 56.800 C 236.760 56.800,236.400 56.980,236.400 57.200 C 236.400 57.420,236.040 57.600,235.600 57.600 C 235.160 57.600,234.800 57.739,234.800 57.909 C 234.800 58.079,234.152 58.567,233.360 58.994 C 231.230 60.141,226.371 65.110,225.232 67.306 C 224.920 67.908,224.515 68.400,224.332 68.400 C 224.150 68.400,224.000 68.760,224.000 69.200 C 224.000 69.640,223.820 70.000,223.600 70.000 C 223.380 70.000,223.200 70.360,223.200 70.800 C 223.200 71.240,223.020 71.600,222.800 71.600 C 222.580 71.600,222.400 71.960,222.400 72.400 C 222.400 72.840,222.220 73.200,222.000 73.200 C 221.780 73.200,221.600 73.740,221.600 74.400 C 221.600 75.060,221.420 75.600,221.200 75.600 C 220.980 75.600,220.800 76.140,220.800 76.800 C 220.800 77.460,220.620 78.000,220.400 78.000 C 220.175 78.000,220.000 79.125,220.000 80.576 C 220.000 81.993,219.820 83.264,219.600 83.400 C 219.380 83.536,219.200 85.077,219.200 86.824 C 219.200 88.675,219.367 90.000,219.600 90.000 C 219.822 90.000,220.000 91.067,220.000 92.400 C 220.000 93.733,220.178 94.800,220.400 94.800 C 220.620 94.800,220.800 95.419,220.800 96.176 C 220.800 96.933,220.980 97.664,221.200 97.800 C 221.420 97.936,221.600 98.577,221.600 99.224 C 221.600 99.871,221.780 100.400,222.000 100.400 C 222.220 100.400,222.400 100.760,222.400 101.200 C 222.400 101.640,222.580 102.000,222.800 102.000 C 223.020 102.000,223.200 102.270,223.200 102.600 C 223.200 102.930,223.380 103.200,223.600 103.200 C 223.820 103.200,224.000 103.470,224.000 103.800 C 224.000 104.130,224.180 104.400,224.400 104.400 C 224.620 104.400,224.800 104.687,224.800 105.037 C 224.800 106.252,230.404 112.448,232.763 113.842 C 233.443 114.244,234.000 114.714,234.000 114.886 C 234.000 115.059,234.236 115.200,234.525 115.200 C 234.813 115.200,235.436 115.560,235.908 116.000 C 236.380 116.440,237.044 116.800,237.383 116.800 C 237.722 116.800,238.000 116.980,238.000 117.200 C 238.000 117.420,238.360 117.600,238.800 117.600 C 239.240 117.600,239.600 117.780,239.600 118.000 C 239.600 118.220,240.140 118.400,240.800 118.400 C 241.460 118.400,242.000 118.580,242.000 118.800 C 242.000 119.044,240.187 119.200,237.360 119.200 C 232.721 119.200,232.721 119.200,231.600 120.400 C 230.983 121.060,230.281 121.600,230.040 121.600 C 229.798 121.600,229.600 121.750,229.600 121.932 C 229.600 122.115,229.156 122.502,228.614 122.793 C 228.071 123.083,227.722 123.473,227.837 123.660 C 227.953 123.847,227.859 124.000,227.629 124.000 C 227.399 124.000,226.306 124.900,225.200 126.000 C 224.094 127.100,223.054 128.000,222.888 128.000 C 222.723 128.000,220.798 129.710,218.610 131.800 C 216.423 133.890,214.500 135.600,214.336 135.600 C 214.173 135.600,212.811 136.815,211.311 138.300 C 209.811 139.785,207.945 141.479,207.165 142.064 C 206.385 142.650,204.927 143.910,203.926 144.864 C 201.919 146.778,200.478 148.000,200.229 148.000 C 200.140 148.000,198.898 149.125,197.469 150.500 C 192.588 155.197,188.874 158.599,187.754 159.400 C 187.138 159.840,186.312 160.515,185.917 160.900 C 185.523 161.285,185.200 161.500,185.200 161.377 C 185.200 161.255,184.130 162.245,182.822 163.577 C 181.514 164.910,180.319 166.000,180.165 166.000 C 180.012 166.000,179.371 166.540,178.740 167.200 C 178.109 167.860,177.460 168.402,177.297 168.404 C 177.133 168.406,176.550 168.980,176.000 169.680 C 175.450 170.380,174.606 171.349,174.124 171.834 L 173.249 172.715 180.244 183.244 C 184.092 189.035,187.283 193.816,187.336 193.870 C 187.390 193.923,188.056 193.433,188.817 192.781 C 189.577 192.129,190.515 191.495,190.900 191.371 C 191.285 191.247,191.600 190.990,191.600 190.800 C 191.600 190.610,191.923 190.351,192.317 190.226 C 192.712 190.101,193.702 189.369,194.518 188.599 C 195.334 187.830,196.199 187.200,196.440 187.200 C 196.682 187.200,197.383 186.660,198.000 186.000 C 198.617 185.340,199.285 184.800,199.485 184.800 C 199.685 184.800,200.198 184.480,200.625 184.089 C 201.051 183.698,202.030 182.942,202.800 182.408 C 203.570 181.875,204.491 181.114,204.847 180.719 C 205.203 180.324,205.671 180.000,205.888 180.000 C 206.104 180.000,206.846 179.460,207.537 178.800 C 208.228 178.140,208.908 177.600,209.049 177.600 C 209.191 177.600,209.643 177.211,210.056 176.736 C 210.865 175.803,211.623 176.008,210.842 176.949 C 210.224 177.694,210.165 189.722,210.778 189.926 C 211.010 190.003,211.200 190.592,211.200 191.233 C 211.200 191.875,211.380 192.400,211.600 192.400 C 211.820 192.400,212.000 192.940,212.000 193.600 C 212.000 194.260,212.180 194.800,212.400 194.800 C 212.620 194.800,212.800 195.160,212.800 195.600 C 212.800 196.040,212.958 196.400,213.151 196.400 C 213.345 196.400,213.727 196.940,214.000 197.600 C 214.273 198.260,214.655 198.800,214.849 198.800 C 215.042 198.800,215.200 199.070,215.200 199.400 C 215.200 199.730,215.380 200.000,215.600 200.000 C 215.820 200.000,216.000 200.186,216.000 200.413 C 216.000 200.920,218.077 203.018,220.100 204.555 C 221.443 205.575,222.095 206.797,221.300 206.802 C 221.135 206.803,220.370 207.792,219.600 209.000 C 218.830 210.208,218.065 211.197,217.900 211.198 C 217.735 211.199,217.600 211.393,217.600 211.628 C 217.600 212.135,215.191 215.741,214.723 215.933 C 214.545 216.007,214.400 216.322,214.400 216.633 C 214.400 216.945,214.220 217.200,214.000 217.200 C 213.780 217.200,213.600 217.470,213.600 217.800 C 213.600 218.130,213.420 218.400,213.200 218.400 C 212.980 218.400,212.800 218.596,212.800 218.835 C 212.800 219.248,210.691 222.461,209.763 223.461 C 209.522 223.720,209.095 224.487,208.814 225.166 C 208.533 225.845,208.145 226.400,207.951 226.400 C 207.758 226.400,207.600 226.642,207.600 226.938 C 207.600 227.234,207.240 227.802,206.800 228.200 C 206.360 228.598,206.000 229.166,206.000 229.462 C 206.000 229.758,205.850 230.000,205.668 230.000 C 205.485 230.000,205.080 230.495,204.768 231.100 C 204.455 231.705,203.885 232.549,203.500 232.975 C 203.115 233.402,202.800 233.904,202.800 234.092 C 202.800 234.280,202.440 234.820,202.000 235.292 C 201.560 235.764,201.200 236.387,201.200 236.675 C 201.200 236.964,201.032 237.200,200.827 237.200 C 200.622 237.200,200.341 237.555,200.204 237.988 C 200.066 238.422,193.844 244.889,186.377 252.359 C 177.177 261.563,172.800 266.212,172.800 266.780 C 172.800 268.070,192.080 287.200,193.380 287.200 C 194.392 287.200,227.600 254.415,227.600 253.416 C 227.600 253.175,227.960 252.717,228.400 252.400 C 228.840 252.083,229.200 251.593,229.200 251.312 C 229.200 251.030,229.380 250.800,229.600 250.800 C 229.820 250.800,230.000 250.570,230.000 250.288 C 230.000 250.007,230.360 249.517,230.800 249.200 C 231.240 248.883,231.600 248.385,231.600 248.094 C 231.600 247.802,232.050 247.114,232.600 246.564 C 233.150 246.014,233.600 245.400,233.600 245.200 C 233.600 245.000,234.050 244.386,234.600 243.836 C 235.150 243.286,235.600 242.558,235.600 242.218 C 235.600 241.878,235.754 241.600,235.942 241.600 C 236.282 241.600,239.600 237.374,239.600 236.941 C 239.600 236.817,240.050 236.181,240.600 235.527 C 241.150 234.873,241.600 234.122,241.600 233.858 C 241.600 233.593,241.960 233.117,242.400 232.800 C 242.840 232.483,243.200 231.991,243.200 231.708 C 243.200 231.425,243.740 230.628,244.400 229.937 C 245.060 229.246,245.600 228.478,245.600 228.229 C 245.600 227.980,245.960 227.517,246.400 227.200 C 246.840 226.883,247.200 226.401,247.200 226.130 C 247.200 225.858,247.605 225.212,248.100 224.694 C 249.716 223.003,251.185 221.010,251.193 220.500 C 251.197 220.225,251.341 220.000,251.514 220.000 C 251.686 220.000,252.121 219.505,252.479 218.900 C 252.837 218.295,253.596 217.260,254.165 216.600 C 254.734 215.940,255.199 215.266,255.200 215.103 C 255.203 213.260,262.798 211.579,263.800 213.200 C 263.939 213.425,265.871 213.600,268.224 213.600 L 272.400 213.600 272.400 233.153 L 272.400 252.707 273.300 252.948 C 274.496 253.268,304.748 253.270,306.350 252.950 L 307.600 252.700 307.594 224.050 C 307.588 195.595,307.496 193.362,306.274 192.141 C 306.123 191.990,306.000 191.537,306.000 191.133 C 306.000 190.730,305.832 190.400,305.627 190.400 C 305.422 190.400,305.146 190.061,305.015 189.647 C 304.719 188.715,302.547 186.400,301.968 186.400 C 301.734 186.400,301.264 186.121,300.923 185.780 C 300.582 185.440,299.785 185.057,299.152 184.930 C 298.518 184.804,298.000 184.543,298.000 184.350 C 298.000 184.158,297.201 184.000,296.224 184.000 C 295.247 184.000,294.336 183.820,294.200 183.600 C 294.064 183.380,292.984 183.200,291.800 183.200 C 290.616 183.200,289.536 183.020,289.400 182.800 C 289.264 182.580,288.184 182.400,287.000 182.400 C 285.816 182.400,284.736 182.220,284.600 182.000 C 284.464 181.780,283.384 181.600,282.200 181.600 C 281.016 181.600,279.936 181.420,279.800 181.200 C 279.664 180.980,278.494 180.800,277.200 180.800 C 275.906 180.800,274.736 180.620,274.600 180.400 C 274.464 180.180,273.384 180.000,272.200 180.000 C 271.016 180.000,269.936 179.820,269.800 179.600 C 269.664 179.380,269.113 179.200,268.576 179.200 C 267.867 179.200,267.600 178.982,267.600 178.400 C 267.600 177.960,267.780 177.600,268.000 177.600 C 268.220 177.600,268.400 176.700,268.400 175.600 C 268.400 174.500,268.580 173.600,268.800 173.600 C 269.020 173.600,269.200 172.801,269.200 171.824 C 269.200 170.847,269.380 169.936,269.600 169.800 C 269.820 169.664,270.000 168.753,270.000 167.776 C 270.000 166.799,270.180 166.000,270.400 166.000 C 270.620 166.000,270.800 165.100,270.800 164.000 C 270.800 162.900,270.980 162.000,271.200 162.000 C 271.420 162.000,271.600 161.100,271.600 160.000 C 271.600 158.900,271.763 158.000,271.961 158.000 C 272.160 158.000,272.423 157.145,272.546 156.100 C 273.020 152.063,273.295 150.586,273.641 150.220 C 273.838 150.011,274.000 149.246,274.000 148.520 L 274.000 147.200 303.410 147.200 L 332.820 147.200 333.210 146.174 C 333.432 145.590,333.600 139.995,333.600 133.200 C 333.600 126.405,333.432 120.810,333.210 120.226 L 332.820 119.200 298.510 119.173 C 279.114 119.158,264.548 118.997,265.000 118.804 C 265.440 118.615,266.385 118.224,267.100 117.933 C 267.815 117.642,268.400 117.269,268.400 117.102 C 268.400 116.936,268.760 116.800,269.200 116.800 C 269.640 116.800,270.000 116.620,270.000 116.400 C 270.000 116.180,270.360 116.000,270.800 116.000 C 271.240 116.000,271.600 115.820,271.600 115.600 C 271.600 115.380,271.778 115.200,271.995 115.200 C 272.462 115.200,273.786 114.163,274.929 112.900 C 275.377 112.405,275.900 112.000,276.090 112.000 C 276.591 112.000,278.400 110.116,278.400 109.595 C 278.400 109.352,278.580 109.264,278.800 109.400 C 279.020 109.536,279.200 109.455,279.200 109.220 C 279.200 108.985,279.740 108.228,280.400 107.537 C 281.060 106.846,281.600 106.038,281.600 105.741 C 281.600 105.443,281.759 105.200,281.953 105.200 C 282.148 105.200,282.407 104.885,282.529 104.500 C 282.825 103.564,284.124 101.434,284.500 101.267 C 284.665 101.193,284.800 100.709,284.800 100.190 C 284.800 99.672,284.980 99.136,285.200 99.000 C 285.420 98.864,285.600 98.223,285.600 97.576 C 285.600 96.929,285.780 96.400,286.000 96.400 C 286.220 96.400,286.400 95.871,286.400 95.224 C 286.400 94.577,286.580 93.936,286.800 93.800 C 287.042 93.650,287.200 90.796,287.200 86.576 C 287.200 82.192,287.051 79.600,286.800 79.600 C 286.580 79.600,286.400 79.071,286.400 78.424 C 286.400 77.777,286.220 77.136,286.000 77.000 C 285.780 76.864,285.600 76.324,285.600 75.800 C 285.600 75.276,285.420 74.736,285.200 74.600 C 284.980 74.464,284.800 73.913,284.800 73.376 C 284.800 72.839,284.620 72.400,284.400 72.400 C 284.180 72.400,284.000 72.040,284.000 71.600 C 284.000 71.160,283.841 70.800,283.647 70.800 C 283.452 70.800,283.193 70.485,283.071 70.100 C 282.701 68.931,281.462 67.076,280.300 65.947 C 279.695 65.360,279.200 64.581,279.200 64.216 C 279.200 63.851,279.020 63.664,278.800 63.800 C 278.580 63.936,278.395 63.812,278.388 63.524 C 278.381 63.236,277.886 62.597,277.288 62.104 C 273.664 59.122,272.665 58.400,272.162 58.400 C 271.853 58.400,271.600 58.220,271.600 58.000 C 271.600 57.780,271.364 57.600,271.075 57.600 C 270.787 57.600,270.164 57.240,269.692 56.800 C 269.220 56.360,268.556 56.000,268.217 56.000 C 267.878 56.000,267.600 55.820,267.600 55.600 C 267.600 55.380,267.060 55.200,266.400 55.200 C 265.740 55.200,265.200 55.020,265.200 54.800 C 265.200 54.580,264.660 54.400,264.000 54.400 C 263.340 54.400,262.800 54.220,262.800 54.000 C 262.800 53.780,262.001 53.600,261.024 53.600 C 260.047 53.600,259.136 53.420,259.000 53.200 C 258.854 52.963,256.388 52.800,252.953 52.800 C 249.188 52.800,247.240 52.940,247.400 53.200 " stroke="none" fill="#1c93ab" fill-rule="evenodd"></path><path id="path1" d="M42.500 0.274 C 41.345 0.366,40.400 0.612,40.400 0.821 C 40.400 1.029,39.781 1.200,39.024 1.200 C 38.267 1.200,37.536 1.380,37.400 1.600 C 37.264 1.820,36.623 2.000,35.976 2.000 C 35.329 2.000,34.800 2.180,34.800 2.400 C 34.800 2.620,34.440 2.800,34.000 2.800 C 33.560 2.800,33.200 2.980,33.200 3.200 C 33.200 3.420,32.660 3.600,32.000 3.600 C 31.340 3.600,30.800 3.780,30.800 4.000 C 30.800 4.220,30.440 4.400,30.000 4.400 C 29.560 4.400,29.200 4.580,29.200 4.800 C 29.200 5.020,28.829 5.200,28.376 5.200 C 27.923 5.200,27.664 5.380,27.800 5.600 C 27.936 5.820,27.704 6.000,27.286 6.000 C 26.867 6.000,26.198 6.360,25.800 6.800 C 25.402 7.240,24.834 7.600,24.538 7.600 C 24.242 7.600,24.000 7.780,24.000 8.000 C 24.000 8.220,23.685 8.403,23.300 8.406 C 22.915 8.410,21.991 8.950,21.246 9.606 C 20.501 10.263,19.745 10.800,19.565 10.800 C 19.022 10.800,10.400 19.594,10.400 20.147 C 10.400 20.429,9.950 21.083,9.400 21.600 C 8.850 22.117,8.400 22.868,8.400 23.270 C 8.400 23.671,8.220 24.000,8.000 24.000 C 7.780 24.000,7.600 24.236,7.600 24.525 C 7.600 24.813,7.240 25.436,6.800 25.908 C 6.360 26.380,6.000 26.954,6.000 27.183 C 6.000 27.412,5.820 27.600,5.600 27.600 C 5.380 27.600,5.200 27.960,5.200 28.400 C 5.200 28.840,5.020 29.200,4.800 29.200 C 4.580 29.200,4.400 29.560,4.400 30.000 C 4.400 30.440,4.220 30.800,4.000 30.800 C 3.780 30.800,3.600 31.250,3.600 31.800 C 3.600 32.350,3.420 32.800,3.200 32.800 C 2.980 32.800,2.800 33.250,2.800 33.800 C 2.800 34.350,2.620 34.800,2.400 34.800 C 2.180 34.800,2.000 35.340,2.000 36.000 C 2.000 36.660,1.820 37.200,1.600 37.200 C 1.380 37.200,1.200 37.905,1.200 38.767 C 1.200 39.632,0.985 40.405,0.719 40.494 C 0.367 40.611,0.192 43.317,0.070 50.527 L -0.098 60.400 70.451 60.400 L 141.000 60.399 140.943 55.900 C 140.870 50.094,139.849 41.801,139.156 41.373 C 138.960 41.252,138.800 40.724,138.800 40.200 C 138.800 39.676,138.620 39.136,138.400 39.000 C 138.180 38.864,138.000 38.403,138.000 37.976 C 138.000 37.549,137.820 37.200,137.600 37.200 C 137.380 37.200,137.200 36.840,137.200 36.400 C 137.200 35.960,137.065 35.599,136.900 35.597 C 136.541 35.593,135.600 33.656,135.600 32.920 C 135.600 32.634,135.420 32.400,135.200 32.400 C 134.980 32.400,134.800 32.164,134.800 31.875 C 134.800 31.587,134.480 31.002,134.089 30.575 C 133.698 30.149,132.952 29.196,132.432 28.457 C 131.387 26.976,128.563 24.000,128.203 24.000 C 128.076 24.000,127.364 23.415,126.620 22.700 C 124.118 20.297,122.789 19.200,122.376 19.200 C 122.151 19.200,121.580 18.840,121.108 18.400 C 120.636 17.960,120.013 17.600,119.725 17.600 C 119.436 17.600,119.200 17.420,119.200 17.200 C 119.200 16.980,118.840 16.800,118.400 16.800 C 117.960 16.800,117.600 16.620,117.600 16.400 C 117.600 16.180,117.240 16.000,116.800 16.000 C 116.360 16.000,116.000 15.820,116.000 15.600 C 116.000 15.380,115.460 15.200,114.800 15.200 C 114.140 15.200,113.600 15.020,113.600 14.800 C 113.600 14.580,113.060 14.400,112.400 14.400 C 111.740 14.400,111.200 14.220,111.200 14.000 C 111.200 13.780,110.480 13.600,109.600 13.600 C 108.720 13.600,108.000 13.420,108.000 13.200 C 108.000 12.947,105.200 12.800,100.400 12.800 C 95.600 12.800,92.800 12.947,92.800 13.200 C 92.800 13.420,92.170 13.600,91.400 13.600 C 90.630 13.600,90.000 13.420,90.000 13.200 C 90.000 12.980,89.792 12.800,89.538 12.800 C 89.283 12.800,88.369 12.080,87.507 11.200 C 86.644 10.320,85.690 9.600,85.387 9.600 C 85.084 9.600,84.386 9.150,83.836 8.600 C 83.286 8.050,82.558 7.600,82.218 7.600 C 81.878 7.600,81.600 7.420,81.600 7.200 C 81.600 6.980,81.240 6.800,80.800 6.800 C 80.360 6.800,80.000 6.620,80.000 6.400 C 80.000 6.180,79.680 6.000,79.288 6.000 C 78.897 6.000,78.317 5.640,78.000 5.200 C 77.661 4.730,76.965 4.400,76.312 4.400 C 75.700 4.400,75.200 4.220,75.200 4.000 C 75.200 3.780,74.840 3.600,74.400 3.600 C 73.960 3.600,73.600 3.420,73.600 3.200 C 73.600 2.980,73.150 2.800,72.600 2.800 C 72.050 2.800,71.600 2.620,71.600 2.400 C 71.600 2.180,71.071 2.000,70.424 2.000 C 69.777 2.000,69.136 1.820,69.000 1.600 C 68.864 1.380,68.148 1.200,67.410 1.200 C 66.671 1.200,65.992 0.975,65.900 0.700 C 65.733 0.199,47.574 -0.131,42.500 0.274 M99.600 79.800 L 99.600 87.218 106.900 87.109 L 114.200 87.000 114.200 79.800 L 114.200 72.600 106.900 72.491 L 99.600 72.382 99.600 79.800 M126.267 72.667 C 126.120 72.813,126.000 76.147,126.000 80.075 L 126.000 87.218 133.447 87.109 L 140.894 87.000 140.860 80.000 C 140.841 76.150,140.819 72.865,140.813 72.700 C 140.797 72.329,126.636 72.297,126.267 72.667 M152.800 79.791 L 152.800 87.200 160.209 87.200 L 167.618 87.200 167.509 79.900 L 167.400 72.600 160.100 72.491 L 152.800 72.382 152.800 79.791 " stroke="none" fill="#fcf4ec" fill-rule="evenodd"></path><path id="path2" d="M140.928 56.800 C 140.928 58.230,141.001 58.815,141.089 58.100 C 141.178 57.385,141.178 56.215,141.089 55.500 C 141.001 54.785,140.928 55.370,140.928 56.800 M140.960 79.800 C 140.961 83.100,141.022 84.397,141.098 82.682 C 141.173 80.967,141.172 78.267,141.097 76.682 C 141.021 75.097,140.959 76.500,140.960 79.800 M83.812 119.580 C 83.670 119.811,82.293 120.000,80.753 120.000 C 79.213 120.000,78.052 120.160,78.172 120.355 C 78.379 120.689,77.581 120.930,74.500 121.463 C 73.785 121.586,73.200 121.848,73.200 122.044 C 73.200 122.240,72.840 122.400,72.400 122.400 C 71.960 122.400,71.600 122.536,71.600 122.702 C 71.600 123.022,69.013 124.282,68.982 123.978 C 68.972 123.880,68.465 124.298,67.856 124.908 C 67.247 125.517,66.610 125.930,66.440 125.825 C 66.271 125.720,65.128 126.662,63.901 127.917 C 60.786 131.105,59.606 132.400,59.818 132.400 C 59.918 132.400,59.667 132.733,59.260 133.140 C 58.853 133.547,58.269 134.447,57.963 135.140 C 57.656 135.833,57.269 136.400,57.102 136.400 C 56.936 136.400,56.800 136.760,56.800 137.200 C 56.800 137.640,56.620 138.000,56.400 138.000 C 56.180 138.000,56.000 138.360,56.000 138.800 C 56.000 139.240,55.820 139.600,55.600 139.600 C 55.380 139.600,55.200 140.140,55.200 140.800 C 55.200 141.460,55.020 142.000,54.800 142.000 C 54.580 142.000,54.400 142.450,54.400 143.000 C 54.400 143.550,54.220 144.000,54.000 144.000 C 53.780 144.000,53.600 144.720,53.600 145.600 C 53.600 146.480,53.420 147.200,53.200 147.200 C 52.952 147.200,52.800 149.392,52.800 152.976 C 52.800 156.396,52.963 158.854,53.200 159.000 C 53.420 159.136,53.600 159.946,53.600 160.800 C 53.600 161.654,53.780 162.464,54.000 162.600 C 54.220 162.736,54.400 163.387,54.400 164.047 C 54.400 164.745,54.567 165.144,54.800 165.000 C 55.026 164.860,55.200 165.188,55.200 165.753 C 55.200 166.303,55.380 166.864,55.600 167.000 C 55.820 167.136,56.000 167.620,56.000 168.077 C 56.000 168.533,56.315 169.199,56.700 169.557 C 57.569 170.365,58.400 171.815,58.400 172.521 C 58.400 172.813,59.023 173.604,59.784 174.278 C 60.545 174.952,61.220 175.723,61.284 175.991 C 61.430 176.606,63.875 179.200,64.307 179.200 C 64.484 179.200,65.432 179.915,66.414 180.789 C 67.397 181.662,68.470 182.386,68.800 182.398 C 69.130 182.409,69.850 182.770,70.400 183.200 C 70.950 183.630,71.625 183.986,71.900 183.991 C 72.175 183.996,72.400 184.180,72.400 184.400 C 72.400 184.620,72.839 184.800,73.376 184.800 C 76.391 184.800,74.383 185.609,71.224 185.667 C 69.231 185.703,67.285 185.748,66.900 185.767 C 66.135 185.803,65.200 187.264,65.200 188.422 C 65.200 188.824,65.020 189.264,64.800 189.400 C 64.580 189.536,64.400 189.997,64.400 190.424 C 64.400 190.851,64.190 191.200,63.933 191.200 C 63.677 191.200,63.582 191.315,63.723 191.456 C 63.864 191.597,63.732 192.182,63.430 192.756 C 63.129 193.330,62.655 194.565,62.377 195.500 C 62.099 196.435,61.721 197.200,61.536 197.200 C 61.351 197.200,61.200 197.524,61.200 197.920 C 61.200 198.316,60.975 198.882,60.700 199.179 C 60.298 199.612,60.304 199.659,60.730 199.417 C 61.140 199.184,61.169 199.283,60.859 199.858 C 60.244 200.997,59.866 202.152,59.944 202.654 C 59.983 202.904,59.759 203.207,59.447 203.327 C 59.135 203.446,58.750 204.315,58.590 205.257 C 58.431 206.199,58.164 207.246,57.997 207.585 C 57.830 207.923,57.518 208.650,57.303 209.200 C 57.089 209.750,56.528 210.982,56.057 211.938 C 55.586 212.894,55.200 213.931,55.200 214.243 C 55.200 214.795,55.026 215.230,54.062 217.095 C 53.808 217.587,53.600 218.262,53.600 218.595 C 53.600 218.928,53.420 219.200,53.200 219.200 C 52.980 219.200,52.800 219.740,52.800 220.400 C 52.800 221.060,52.620 221.600,52.400 221.600 C 52.180 221.600,52.000 222.061,52.000 222.624 C 52.000 223.204,51.827 223.540,51.600 223.400 C 51.367 223.256,51.200 223.663,51.200 224.376 C 51.200 225.049,51.020 225.600,50.800 225.600 C 50.580 225.600,50.400 226.039,50.400 226.576 C 50.400 227.113,50.220 227.664,50.000 227.800 C 49.780 227.936,49.600 228.397,49.600 228.824 C 49.600 229.251,49.420 229.600,49.200 229.600 C 48.980 229.600,48.800 230.050,48.800 230.600 C 48.800 231.150,48.620 231.600,48.400 231.600 C 48.180 231.600,48.000 232.151,48.000 232.824 C 48.000 233.537,47.833 233.944,47.600 233.800 C 47.376 233.662,47.200 233.971,47.200 234.501 C 47.200 235.023,46.840 236.195,46.400 237.106 C 45.960 238.016,45.600 238.950,45.600 239.181 C 45.600 239.411,45.458 239.600,45.285 239.600 C 45.112 239.600,44.927 240.160,44.875 240.845 C 44.823 241.529,44.605 242.417,44.390 242.818 C 44.176 243.219,44.000 244.380,44.000 245.397 C 44.000 246.415,43.847 247.153,43.660 247.037 C 43.473 246.922,43.323 248.171,43.328 249.813 C 43.332 251.456,43.449 252.800,43.589 252.800 C 43.729 252.800,43.885 253.507,43.936 254.371 C 44.055 256.388,45.751 262.116,46.119 261.747 C 46.374 261.493,46.579 262.515,46.437 263.330 C 46.406 263.511,46.526 263.569,46.705 263.459 C 46.884 263.348,47.281 263.830,47.588 264.529 C 47.895 265.228,48.653 266.277,49.273 266.860 C 49.893 267.444,50.400 268.132,50.400 268.389 C 50.400 269.011,51.438 270.028,51.752 269.714 C 51.889 269.578,52.000 269.767,52.000 270.133 C 52.000 270.500,52.225 270.801,52.500 270.802 C 53.353 270.805,55.447 272.747,54.968 273.091 C 54.730 273.261,53.410 275.065,52.034 277.100 C 50.659 279.135,49.358 280.800,49.143 280.800 C 48.928 280.800,48.855 280.965,48.980 281.168 C 49.105 281.370,48.936 281.807,48.604 282.139 C 48.272 282.471,48.000 282.946,48.000 283.195 C 48.000 283.444,47.820 283.536,47.600 283.400 C 47.380 283.264,47.200 283.523,47.200 283.976 C 47.200 284.429,47.020 284.800,46.800 284.800 C 46.580 284.800,46.400 285.081,46.400 285.424 C 46.400 285.767,46.220 285.936,46.000 285.800 C 45.780 285.664,45.600 285.896,45.600 286.314 C 45.600 286.733,45.240 287.402,44.800 287.800 C 44.360 288.198,44.000 288.678,44.000 288.866 C 44.000 289.054,43.413 290.061,42.696 291.104 C 41.979 292.147,41.142 293.489,40.836 294.086 C 40.530 294.684,40.127 295.078,39.940 294.963 C 39.753 294.847,39.600 295.123,39.600 295.576 C 39.600 296.029,39.420 296.400,39.200 296.400 C 38.980 296.400,38.800 296.681,38.800 297.024 C 38.800 297.367,38.620 297.536,38.400 297.400 C 38.180 297.264,38.000 297.496,38.000 297.914 C 38.000 298.333,37.640 299.002,37.200 299.400 C 36.760 299.798,36.400 300.284,36.400 300.479 C 36.400 300.674,36.040 301.220,35.600 301.692 C 35.160 302.164,34.800 302.787,34.800 303.075 C 34.800 303.364,34.620 303.600,34.400 303.600 C 34.180 303.600,34.000 303.857,34.000 304.171 C 34.000 304.485,27.700 311.042,20.000 318.743 C 12.300 326.444,6.000 333.053,6.000 333.429 C 6.000 333.805,10.140 338.241,15.200 343.286 C 20.260 348.331,24.400 352.349,24.400 352.214 C 24.400 352.079,24.651 352.201,24.958 352.484 C 25.265 352.768,25.434 353.135,25.334 353.300 C 25.235 353.465,25.433 353.600,25.776 353.600 C 26.119 353.600,26.400 353.750,26.400 353.933 C 26.400 354.117,26.660 354.267,26.978 354.267 C 27.296 354.267,27.521 354.162,27.478 354.033 C 27.435 353.905,27.580 353.723,27.800 353.629 C 28.460 353.346,29.200 352.487,29.200 352.005 C 29.200 351.756,29.380 351.664,29.600 351.800 C 29.820 351.936,30.000 351.871,30.000 351.656 C 30.000 351.273,34.682 346.400,35.050 346.400 C 35.153 346.400,35.686 345.950,36.236 345.400 C 36.786 344.850,37.098 344.400,36.929 344.400 C 36.760 344.400,37.067 344.097,37.611 343.726 C 38.155 343.356,38.870 342.709,39.200 342.289 C 39.967 341.312,41.312 339.967,42.289 339.200 C 42.709 338.870,43.356 338.155,43.726 337.611 C 44.097 337.067,44.400 336.760,44.400 336.929 C 44.400 337.098,44.850 336.786,45.400 336.236 C 45.950 335.686,46.400 335.153,46.400 335.050 C 46.400 334.682,51.273 330.000,51.656 330.000 C 51.871 330.000,51.936 329.820,51.800 329.600 C 51.664 329.380,51.756 329.200,52.005 329.200 C 52.615 329.200,53.624 328.158,53.314 327.848 C 53.178 327.711,53.232 327.600,53.433 327.600 C 53.883 327.599,56.038 325.782,55.853 325.560 C 55.780 325.472,56.503 324.631,57.460 323.691 C 58.417 322.751,59.200 322.103,59.200 322.252 C 59.200 322.722,60.765 320.739,61.015 319.952 C 61.146 319.539,61.410 319.200,61.600 319.200 C 61.790 319.200,62.049 318.877,62.174 318.483 C 62.299 318.088,63.031 317.098,63.801 316.282 C 64.570 315.466,65.200 314.568,65.200 314.287 C 65.200 314.006,65.550 313.524,65.979 313.215 C 66.407 312.907,66.684 312.537,66.595 312.393 C 66.506 312.249,67.011 311.503,67.717 310.735 C 68.423 309.967,69.051 309.108,69.114 308.826 C 69.177 308.545,69.447 308.089,69.714 307.813 C 70.547 306.952,72.600 304.272,72.610 304.030 C 72.620 303.806,74.781 300.681,75.593 299.717 C 75.817 299.451,76.000 299.036,76.000 298.793 C 76.000 298.551,76.208 298.481,76.462 298.638 C 76.727 298.802,76.816 298.749,76.670 298.513 C 76.531 298.288,76.789 297.675,77.244 297.152 C 77.698 296.628,78.363 295.705,78.721 295.100 C 79.080 294.495,79.514 294.000,79.686 294.000 C 79.859 294.000,80.000 293.730,80.000 293.400 C 80.000 293.070,80.180 292.800,80.400 292.800 C 80.620 292.800,80.800 292.620,80.800 292.400 C 80.800 292.180,81.081 291.685,81.424 291.300 C 84.012 288.397,84.800 287.376,84.800 286.922 C 84.800 286.635,84.968 286.400,85.173 286.400 C 85.378 286.400,85.662 286.034,85.804 285.587 C 85.946 285.140,86.498 284.338,87.031 283.805 C 87.564 283.272,88.000 282.691,88.000 282.514 C 88.000 280.968,90.735 279.119,92.632 279.382 C 93.714 279.533,96.490 279.745,98.800 279.853 C 101.110 279.962,103.171 280.219,103.380 280.425 C 103.589 280.631,104.264 280.800,104.880 280.800 L 106.000 280.800 106.000 300.157 C 106.000 317.439,106.068 319.540,106.633 319.757 C 107.963 320.268,139.412 320.026,140.117 319.500 C 140.731 319.041,140.786 316.726,140.788 291.200 C 140.790 267.294,140.653 261.582,140.037 259.909 C 139.978 259.749,139.835 259.254,139.718 258.809 C 139.602 258.364,139.348 258.000,139.153 258.000 C 138.959 258.000,138.800 257.759,138.800 257.464 C 138.800 256.844,135.732 253.600,135.146 253.600 C 134.930 253.600,134.864 253.420,135.000 253.200 C 135.136 252.980,134.967 252.800,134.624 252.800 C 134.281 252.800,134.000 252.620,134.000 252.400 C 134.000 252.180,133.640 252.000,133.200 252.000 C 132.760 252.000,132.400 251.840,132.400 251.644 C 132.400 251.260,130.640 250.878,127.300 250.539 C 126.145 250.422,125.200 250.208,125.200 250.063 C 125.200 249.918,124.259 249.743,123.110 249.674 C 121.961 249.605,120.836 249.408,120.610 249.236 C 120.385 249.064,119.120 248.881,117.800 248.831 C 116.480 248.780,115.340 248.573,115.267 248.369 C 115.193 248.166,114.148 248.000,112.943 248.000 C 111.738 248.000,110.845 247.850,110.958 247.668 C 111.071 247.485,110.137 247.295,108.882 247.245 C 107.627 247.196,106.540 246.985,106.467 246.778 C 106.393 246.570,105.394 246.400,104.247 246.400 C 103.099 246.400,101.944 246.184,101.680 245.920 C 101.143 245.383,101.026 244.000,101.518 244.000 C 101.693 244.000,101.881 243.325,101.936 242.500 C 101.990 241.675,102.207 240.940,102.418 240.867 C 102.628 240.793,102.808 240.253,102.818 239.667 C 102.839 238.393,103.710 234.957,104.114 234.553 C 104.271 234.395,104.400 233.577,104.400 232.733 C 104.400 231.890,104.580 231.200,104.800 231.200 C 105.020 231.200,105.200 230.480,105.200 229.600 C 105.200 228.720,105.380 228.000,105.600 228.000 C 105.820 228.000,106.000 227.400,106.000 226.667 C 106.000 225.933,106.119 225.214,106.265 225.068 C 106.411 224.922,106.592 224.234,106.669 223.538 C 106.745 222.843,106.984 222.060,107.200 221.800 C 107.416 221.539,107.475 221.208,107.330 221.063 C 107.185 220.918,114.757 220.800,124.157 220.800 C 135.449 220.800,141.163 220.664,141.000 220.400 C 140.864 220.180,141.123 220.000,141.576 220.000 C 142.029 220.000,142.401 219.865,142.403 219.700 C 142.406 219.379,144.312 218.400,144.933 218.400 C 145.138 218.400,145.597 218.085,145.953 217.700 C 146.309 217.315,146.870 216.941,147.200 216.870 C 147.530 216.798,147.860 216.573,147.933 216.370 C 148.007 216.166,148.412 216.000,148.833 216.000 C 149.255 216.000,149.600 215.820,149.600 215.600 C 149.600 215.380,149.971 215.200,150.424 215.200 C 150.877 215.200,151.136 215.020,151.000 214.800 C 150.864 214.580,151.033 214.400,151.376 214.400 C 151.719 214.400,152.000 214.220,152.000 214.000 C 152.000 213.780,152.360 213.600,152.800 213.600 C 153.240 213.600,153.600 213.420,153.600 213.200 C 153.600 212.980,153.945 212.800,154.367 212.800 C 154.788 212.800,155.193 212.665,155.267 212.500 C 155.469 212.045,157.910 210.400,158.384 210.400 C 158.613 210.400,158.800 210.220,158.800 210.000 C 158.800 209.780,159.160 209.600,159.600 209.600 C 160.040 209.600,160.400 209.420,160.400 209.200 C 160.400 208.980,160.747 208.800,161.171 208.800 C 161.596 208.800,162.185 208.575,162.481 208.300 C 162.777 208.025,163.283 207.741,163.606 207.668 C 163.928 207.595,164.284 207.397,164.396 207.228 C 164.631 206.873,166.460 205.835,166.887 205.814 C 167.045 205.806,167.542 205.485,167.992 205.100 C 168.441 204.715,169.077 204.400,169.405 204.400 C 169.732 204.400,170.000 204.253,170.000 204.073 C 170.000 203.894,171.170 203.141,172.600 202.400 C 174.030 201.659,175.200 200.906,175.200 200.727 C 175.200 200.547,175.560 200.400,176.000 200.400 C 176.440 200.400,176.800 200.220,176.800 200.000 C 176.800 199.780,177.120 199.600,177.512 199.600 C 177.903 199.600,178.483 199.240,178.800 198.800 C 179.117 198.360,179.697 198.000,180.088 198.000 C 180.480 198.000,180.800 197.854,180.800 197.675 C 180.800 197.496,181.430 197.102,182.200 196.800 C 182.970 196.498,183.600 196.104,183.600 195.925 C 183.600 195.746,183.870 195.600,184.200 195.600 C 184.530 195.600,184.800 195.409,184.800 195.176 C 184.800 194.943,184.956 194.849,185.147 194.967 C 185.337 195.085,185.800 194.842,186.175 194.428 C 186.827 193.707,186.560 193.229,180.025 183.437 C 172.561 172.255,172.978 172.622,169.762 174.386 C 168.573 175.039,167.600 175.467,167.600 175.338 C 167.600 175.208,167.358 175.303,167.063 175.548 C 166.768 175.793,166.408 175.875,166.263 175.730 C 166.118 175.585,166.000 175.707,166.000 176.000 C 166.000 176.293,165.887 176.420,165.749 176.282 C 165.611 176.144,164.666 176.508,163.649 177.092 C 159.935 179.221,157.452 180.357,157.031 180.117 C 156.794 179.982,156.732 180.018,156.894 180.196 C 157.260 180.601,156.033 181.570,155.133 181.587 C 154.767 181.594,154.376 181.825,154.265 182.100 C 154.119 182.462,154.054 182.445,154.032 182.039 C 154.010 181.664,153.734 181.784,153.200 182.400 C 152.746 182.924,152.400 183.097,152.400 182.800 C 152.400 182.491,152.095 182.630,151.653 183.139 C 151.242 183.612,150.700 184.000,150.448 184.000 C 150.195 184.000,149.677 184.173,149.295 184.384 C 148.913 184.595,147.340 185.351,145.800 186.064 C 144.260 186.777,142.940 187.504,142.867 187.680 C 142.793 187.856,142.465 188.000,142.138 188.000 C 141.811 188.000,141.271 188.272,140.939 188.604 C 140.607 188.936,140.170 189.105,139.968 188.980 C 139.765 188.855,139.600 188.943,139.600 189.176 C 139.600 189.409,139.345 189.600,139.033 189.600 C 138.722 189.600,138.407 189.735,138.333 189.900 C 138.188 190.226,134.732 191.813,133.338 192.194 C 132.864 192.324,131.334 192.229,129.938 191.984 C 127.288 191.518,123.072 190.916,120.000 190.564 C 119.010 190.451,117.840 190.196,117.400 189.998 C 116.960 189.801,115.610 189.537,114.400 189.413 C 109.339 188.893,108.181 188.708,107.820 188.363 C 107.611 188.163,106.475 188.000,105.296 188.000 C 104.117 188.000,103.245 187.850,103.358 187.668 C 103.471 187.485,102.537 187.295,101.282 187.245 C 100.027 187.195,98.829 186.984,98.620 186.777 C 98.411 186.570,97.826 186.400,97.320 186.400 C 96.814 186.400,96.400 186.220,96.400 186.000 C 96.400 185.780,96.829 185.600,97.354 185.600 C 97.879 185.600,98.811 185.339,99.426 185.020 C 100.040 184.702,100.718 184.550,100.933 184.682 C 101.150 184.816,101.196 184.718,101.038 184.462 C 100.858 184.170,101.056 184.000,101.576 184.000 C 102.029 184.000,102.400 183.820,102.400 183.600 C 102.400 183.380,102.771 183.200,103.224 183.200 C 103.677 183.200,103.936 183.020,103.800 182.800 C 103.664 182.580,103.923 182.400,104.376 182.400 C 104.829 182.400,105.200 182.264,105.200 182.098 C 105.200 181.931,105.741 181.556,106.402 181.263 C 107.064 180.970,107.512 180.582,107.400 180.400 C 107.288 180.218,107.724 179.835,108.369 179.550 C 109.014 179.264,109.455 178.888,109.348 178.715 C 109.240 178.542,109.352 178.400,109.595 178.400 C 110.066 178.400,112.000 176.612,112.000 176.176 C 112.000 175.756,113.894 173.627,114.091 173.825 C 114.191 173.924,114.699 173.149,115.220 172.102 C 115.742 171.056,116.657 169.467,117.254 168.572 C 117.851 167.677,118.414 166.417,118.506 165.772 C 118.687 164.505,119.044 163.401,119.629 162.305 C 119.833 161.923,120.000 160.798,120.000 159.805 C 120.000 158.812,120.180 158.000,120.400 158.000 C 120.643 158.000,120.800 156.200,120.800 153.400 C 120.800 150.600,120.643 148.800,120.400 148.800 C 120.180 148.800,120.002 148.125,120.004 147.300 C 120.008 145.697,118.784 141.585,117.551 139.062 C 117.138 138.216,116.800 137.261,116.800 136.939 C 116.800 136.616,116.658 136.440,116.485 136.548 C 116.312 136.655,115.920 136.170,115.615 135.471 C 115.310 134.772,114.768 133.930,114.411 133.600 C 114.054 133.270,113.322 132.370,112.784 131.600 C 111.435 129.668,107.651 126.050,106.200 125.305 C 105.540 124.966,104.910 124.568,104.800 124.421 C 104.690 124.275,104.015 123.918,103.300 123.629 C 102.585 123.340,102.000 122.945,102.000 122.751 C 102.000 122.558,101.640 122.400,101.200 122.400 C 100.760 122.400,100.400 122.259,100.400 122.087 C 100.400 121.915,99.905 121.737,99.300 121.691 C 98.286 121.615,97.304 121.268,95.505 120.353 C 95.123 120.159,93.728 120.000,92.405 120.000 C 91.082 120.000,90.000 119.846,90.000 119.658 C 90.000 119.154,84.122 119.079,83.812 119.580 " stroke="none" fill="#f4d34c" fill-rule="evenodd"></path><path id="path3" d="M332.400 59.354 C 332.400 111.227,332.475 118.853,332.998 119.854 C 333.489 120.798,333.595 123.156,333.595 133.200 C 333.595 143.244,333.489 145.602,332.998 146.546 C 332.488 147.524,332.400 151.085,332.400 170.846 L 332.400 194.000 339.857 194.000 L 347.314 194.000 347.157 97.000 L 347.000 0.000 339.700 0.000 L 332.400 0.000 332.400 59.354 M172.999 172.256 C 172.284 172.784,172.268 172.885,172.846 173.213 C 173.202 173.415,174.258 174.754,175.193 176.190 C 176.129 177.625,176.984 178.800,177.093 178.800 C 177.326 178.800,176.442 177.380,174.507 174.647 C 173.447 173.148,173.247 172.618,173.651 172.369 C 173.940 172.190,174.092 171.958,173.988 171.854 C 173.884 171.750,173.439 171.931,172.999 172.256 M179.055 182.000 C 180.080 183.540,180.992 184.800,181.082 184.800 C 181.295 184.800,180.998 184.301,179.115 181.500 C 178.266 180.235,177.485 179.200,177.382 179.200 C 177.278 179.200,178.031 180.460,179.055 182.000 " stroke="none" fill="#5c5c64" fill-rule="evenodd"></path><path id="path4" d="M347.004 4.511 C 346.233 9.892,347.071 65.588,347.888 63.300 C 347.986 63.025,348.412 62.800,348.833 62.800 C 349.255 62.800,349.600 62.620,349.600 62.400 C 349.600 62.180,349.960 62.000,350.400 62.000 C 350.840 62.000,351.200 61.820,351.200 61.600 C 351.200 61.380,351.470 61.200,351.800 61.200 C 352.130 61.200,352.400 61.020,352.400 60.800 C 352.400 60.580,352.670 60.400,353.000 60.400 C 353.330 60.400,353.600 60.220,353.600 60.000 C 353.600 59.780,353.960 59.600,354.400 59.600 C 354.840 59.600,355.200 59.420,355.200 59.200 C 355.200 58.980,355.536 58.800,355.946 58.800 C 356.356 58.800,357.150 58.440,357.709 58.000 C 358.269 57.560,358.901 57.200,359.114 57.200 C 359.327 57.200,359.726 56.930,360.000 56.600 C 360.274 56.270,360.836 56.000,361.249 56.000 C 361.662 56.000,362.000 55.820,362.000 55.600 C 362.000 55.380,362.360 55.200,362.800 55.200 C 363.240 55.200,363.600 55.020,363.600 54.800 C 363.600 54.580,363.797 54.400,364.038 54.400 C 364.279 54.400,364.954 54.061,365.538 53.646 C 367.478 52.269,370.294 50.828,370.549 51.082 C 370.687 51.220,370.800 51.123,370.800 50.867 C 370.800 50.610,371.070 50.400,371.400 50.400 C 371.730 50.400,372.000 50.254,372.000 50.075 C 372.000 49.896,372.630 49.502,373.400 49.200 C 374.170 48.898,374.800 48.504,374.800 48.325 C 374.800 48.146,375.070 48.000,375.400 48.000 C 375.730 48.000,376.000 47.820,376.000 47.600 C 376.000 47.380,376.360 47.200,376.800 47.200 C 377.240 47.200,377.600 47.020,377.600 46.800 C 377.600 46.580,377.960 46.400,378.400 46.400 C 378.840 46.400,379.200 46.220,379.200 46.000 C 379.200 45.780,379.436 45.600,379.725 45.600 C 380.013 45.600,380.636 45.240,381.108 44.800 C 381.580 44.360,382.244 44.000,382.583 44.000 C 382.922 44.000,383.200 43.820,383.200 43.600 C 383.200 43.380,383.560 43.200,384.000 43.200 C 384.440 43.200,384.800 43.020,384.800 42.800 C 384.800 42.580,385.171 42.400,385.624 42.400 C 386.077 42.400,386.336 42.220,386.200 42.000 C 386.064 41.780,386.235 41.600,386.579 41.600 C 387.287 41.600,391.329 39.561,391.533 39.100 C 391.607 38.935,391.851 38.800,392.075 38.800 C 392.300 38.800,393.284 38.260,394.262 37.600 C 395.240 36.940,396.301 36.400,396.620 36.400 C 396.939 36.400,397.200 36.220,397.200 36.000 C 397.200 35.780,397.560 35.600,398.000 35.600 C 398.440 35.600,398.800 35.420,398.800 35.200 C 398.800 34.980,399.081 34.800,399.425 34.800 C 400.348 34.800,400.018 32.403,399.017 31.840 C 398.586 31.598,398.000 31.187,397.715 30.926 C 397.429 30.666,396.836 30.338,396.398 30.199 C 395.959 30.060,395.600 29.778,395.600 29.573 C 395.600 29.368,395.240 29.200,394.800 29.200 C 394.360 29.200,394.000 29.009,394.000 28.776 C 394.000 28.543,393.835 28.455,393.632 28.580 C 393.430 28.705,393.018 28.581,392.717 28.304 C 392.416 28.027,391.816 27.604,391.385 27.364 C 390.953 27.124,389.739 26.449,388.686 25.864 C 387.633 25.279,386.508 24.800,386.186 24.800 C 385.864 24.800,385.600 24.620,385.600 24.400 C 385.600 24.180,385.322 24.000,384.983 24.000 C 384.644 24.000,383.980 23.640,383.508 23.200 C 383.036 22.760,382.413 22.400,382.125 22.400 C 381.836 22.400,381.600 22.220,381.600 22.000 C 381.600 21.780,381.240 21.600,380.800 21.600 C 380.360 21.600,380.000 21.420,380.000 21.200 C 380.000 20.980,379.640 20.800,379.200 20.800 C 378.760 20.800,378.400 20.620,378.400 20.400 C 378.400 20.180,378.040 20.000,377.600 20.000 C 377.160 20.000,376.800 19.853,376.800 19.674 C 376.800 19.366,375.871 18.802,371.900 16.700 C 370.965 16.205,370.110 15.710,370.000 15.600 C 369.890 15.490,368.990 14.963,368.000 14.430 C 367.010 13.896,366.068 13.266,365.906 13.030 C 365.744 12.793,365.609 12.745,365.606 12.923 C 365.601 13.214,363.283 12.108,362.800 11.583 C 362.690 11.463,361.554 10.843,360.276 10.205 C 358.997 9.567,357.861 8.899,357.752 8.722 C 357.642 8.545,357.203 8.400,356.776 8.400 C 356.349 8.400,356.000 8.220,356.000 8.000 C 356.000 7.780,355.730 7.600,355.400 7.600 C 355.070 7.600,354.800 7.420,354.800 7.200 C 354.800 6.980,354.429 6.800,353.976 6.800 C 353.523 6.800,353.264 6.620,353.400 6.400 C 353.536 6.180,353.277 6.000,352.824 6.000 C 352.371 6.000,352.000 5.820,352.000 5.600 C 352.000 5.380,351.640 5.200,351.200 5.200 C 350.760 5.200,350.400 5.020,350.400 4.800 C 350.400 4.580,350.040 4.400,349.600 4.400 C 349.160 4.400,348.800 4.263,348.800 4.096 C 348.800 2.618,347.223 2.982,347.004 4.511 M113.293 132.400 C 113.568 132.840,113.931 133.200,114.100 133.200 C 114.269 133.200,114.182 132.840,113.907 132.400 C 113.632 131.960,113.269 131.600,113.100 131.600 C 112.931 131.600,113.018 131.960,113.293 132.400 M258.998 253.131 C 259.070 253.203,257.978 254.463,256.571 255.931 C 249.908 262.882,248.000 264.937,248.000 265.160 C 248.000 265.292,247.055 266.416,245.900 267.657 C 242.320 271.503,239.812 274.448,239.528 275.139 C 239.379 275.502,239.242 275.620,239.225 275.400 C 239.209 275.180,238.837 275.540,238.400 276.200 C 237.963 276.860,237.604 277.268,237.603 277.106 C 237.601 276.944,236.790 277.645,235.800 278.664 C 234.810 279.683,234.000 280.578,234.000 280.653 C 234.000 280.891,232.680 282.413,230.400 284.806 C 227.150 288.217,225.864 289.717,225.249 290.816 C 224.946 291.357,223.657 292.700,222.385 293.800 C 221.112 294.900,220.055 295.985,220.036 296.212 C 220.016 296.438,219.640 296.883,219.200 297.200 C 218.760 297.517,218.400 297.920,218.400 298.096 C 218.400 298.271,217.275 299.544,215.900 300.925 C 214.525 302.306,212.950 304.031,212.400 304.758 C 211.850 305.486,211.006 306.494,210.524 306.998 C 210.043 307.502,209.741 308.008,209.854 308.121 C 209.968 308.234,209.732 308.437,209.330 308.572 C 208.929 308.707,208.150 309.425,207.600 310.169 C 207.050 310.913,206.465 311.439,206.300 311.337 C 206.135 311.236,206.000 311.341,206.000 311.572 C 206.000 312.122,205.162 313.124,201.919 316.450 L 199.239 319.200 170.222 319.200 L 141.206 319.200 141.100 292.100 L 140.994 265.000 140.897 292.086 C 140.802 318.597,140.783 319.181,140.010 319.595 C 139.216 320.019,114.583 319.895,99.835 319.392 C 94.527 319.211,93.000 319.273,92.742 319.681 C 92.560 319.966,92.409 332.125,92.406 346.700 L 92.400 373.200 90.600 373.200 C 89.610 373.200,88.800 373.380,88.800 373.600 C 88.800 373.820,87.900 374.000,86.800 374.000 C 85.700 374.000,84.800 374.157,84.800 374.349 C 84.800 374.541,83.855 374.819,82.700 374.967 C 79.660 375.355,78.831 375.495,76.600 375.991 C 75.500 376.236,73.745 376.541,72.700 376.669 C 71.655 376.797,70.800 377.041,70.800 377.211 C 70.800 377.380,70.035 377.614,69.100 377.731 C 68.165 377.847,66.500 378.148,65.400 378.400 C 64.300 378.652,62.635 378.953,61.700 379.069 C 60.765 379.186,60.000 379.442,60.000 379.640 C 60.000 379.838,59.201 380.000,58.224 380.000 C 57.247 380.000,56.336 380.180,56.200 380.400 C 56.064 380.620,55.164 380.800,54.200 380.800 C 53.236 380.800,52.336 380.980,52.200 381.200 C 52.064 381.420,51.344 381.600,50.600 381.600 C 49.856 381.600,49.136 381.780,49.000 382.000 C 48.864 382.220,48.054 382.400,47.200 382.400 C 46.346 382.400,45.536 382.580,45.400 382.800 C 45.264 383.020,44.263 383.200,43.176 383.200 C 42.089 383.200,41.200 383.380,41.200 383.600 C 41.200 383.820,40.480 384.000,39.600 384.000 C 38.720 384.000,38.000 384.180,38.000 384.400 C 38.000 384.620,37.100 384.800,36.000 384.800 C 34.900 384.800,34.000 384.980,34.000 385.200 C 34.000 385.420,33.190 385.600,32.200 385.600 C 31.210 385.600,30.400 385.780,30.400 386.000 C 30.400 386.220,29.590 386.400,28.600 386.400 C 27.610 386.400,26.800 386.580,26.800 386.800 C 26.800 387.020,25.990 387.200,25.000 387.200 C 24.010 387.200,23.200 387.380,23.200 387.600 C 23.200 387.820,22.401 388.000,21.424 388.000 C 20.447 388.000,19.536 388.180,19.400 388.400 C 19.264 388.620,18.443 388.800,17.576 388.800 C 16.709 388.800,16.000 388.980,16.000 389.200 C 16.000 389.420,15.201 389.600,14.224 389.600 C 13.247 389.600,12.336 389.780,12.200 390.000 C 12.064 390.220,11.153 390.400,10.176 390.400 C 9.199 390.400,8.400 390.580,8.400 390.800 C 8.400 391.020,7.680 391.200,6.800 391.200 C 5.920 391.200,5.199 391.335,5.198 391.500 C 5.197 391.665,4.370 391.848,3.359 391.907 C 0.168 392.092,0.000 392.318,0.000 396.414 L 0.000 400.000 200.000 400.000 L 400.000 400.000 400.000 326.369 L 400.000 252.737 329.433 252.869 C 290.622 252.941,258.926 253.059,258.998 253.131 " stroke="none" fill="#ec9c34" fill-rule="evenodd"></path></g></svg>